# xmcd
#
# Track frame offsets:
# 182
# 11970
# 25235
# 40072
# 51302
# 63577
# 77260
# 88277
# 97992
# 112552
# 131582
# 142145
# 156507
# 169602
# 188120
#
# Disc length: 2682 seconds
#
#
# Revision: 0
# Processed by: cddbd v1.5PL3 Copyright (c) Steve Scherf et al.
# Submitted via: FreeRIP 2.53 
#
DISCID=c40a780f
DTITLE=Jean-Paul Amouroux - 30 Years of Boogie Woogie 1921 - 1951
DYEAR=1995
DGENRE=Boogie Woogie
TTITLE0=Hamp's Boogie Woogie
TTITLE1=Suitcase Blues
TTITLE2=Yancey Special
TTITLE3=Rock It Boogie
TTITLE4=The Fives
TTITLE5=Night Train
TTITLE6=Chicago Breakdown
TTITLE7=Honky Tonk Train Blues
TTITLE8=Mister Freddie Blues
TTITLE9=Boogie Woogie On St Louis Blues
TTITLE10=Old Time Shuffle
TTITLE11=Bottomland Boogie
TTITLE12=Cow Cow Boogie
TTITLE13=Cow Cow Blues
TTITLE14=Pinetop's Boogie Woogie
EXTD=Honky Tonk Productions HT 102
EXTT0=
EXTT1=
EXTT2=
EXTT3=
EXTT4=
EXTT5=
EXTT6=
EXTT7=
EXTT8=
EXTT9=
EXTT10=
EXTT11=
EXTT12=
EXTT13=
EXTT14=
PLAYORDER=
